# Blender 3.1.0
# www.blender.org
mtllib jam_cavity.mtl
o inside_cavity
v 0.000000 -0.950000 -0.840303
v -0.082272 -0.855000 -0.902500
v 0.082272 -0.855000 -0.902500
v 0.000000 0.950000 -0.840303
v 0.082272 0.855000 -0.902500
v -0.082272 0.855000 -0.902500
v 0.727724 -0.950000 -0.420152
v 0.740452 -0.855000 -0.522500
v 0.822724 -0.855000 -0.380000
v 0.727724 0.950000 -0.420152
v 0.822724 0.855000 -0.380000
v 0.740452 0.855000 -0.522500
v 0.727724 -0.950000 0.420152
v 0.822724 -0.855000 0.380000
v 0.740452 -0.855000 0.522500
v 0.727724 0.950000 0.420152
v 0.740452 0.855000 0.522500
v 0.822724 0.855000 0.380000
v -0.000000 -0.950000 0.840303
v 0.082272 -0.855000 0.902500
v -0.082272 -0.855000 0.902500
v -0.000000 0.950000 0.840303
v -0.082272 0.855000 0.902500
v 0.082272 0.855000 0.902500
v -0.727724 -0.950000 0.420152
v -0.740452 -0.855000 0.522500
v -0.822724 -0.855000 0.380000
v -0.727724 0.950000 0.420152
v -0.822724 0.855000 0.380000
v -0.740452 0.855000 0.522500
v -0.727724 -0.950000 -0.420152
v -0.822724 -0.855000 -0.380000
v -0.740452 -0.855000 -0.522500
v -0.727724 0.950000 -0.420152
v -0.740452 0.855000 -0.522500
v -0.822724 0.855000 -0.380000
vn -0.4750 -0.0000 -0.8227
vn 0.4750 -0.0000 0.8227
vn -0.4750 -0.0000 0.8227
vn -0.9500 -0.0000 -0.0000
vn 0.9500 -0.0000 -0.0000
vn -0.0000 0.9500 -0.0000
vn 0.4750 -0.0000 -0.8227
vn -0.0000 -0.5204 -0.7948
vn -0.0000 0.5204 -0.7948
vn 0.6883 -0.5204 -0.3974
vn 0.6883 0.5204 -0.3974
vn 0.6883 -0.5204 0.3974
vn 0.6883 0.5204 0.3974
vn -0.0000 -0.5204 0.7948
vn -0.0000 0.5204 0.7948
vn -0.6883 -0.5204 0.3974
vn -0.6883 0.5204 0.3974
vn -0.6883 -0.5204 -0.3974
vn -0.6883 0.5204 -0.3974
vn 0.3359 -0.6718 -0.5818
vn 0.3359 0.6718 -0.5818
vn -0.0000 -0.0000 -0.9500
vn 0.8227 -0.0000 -0.4750
vn 0.6718 -0.6718 -0.0000
vn 0.6718 0.6718 -0.0000
vn 0.8227 -0.0000 0.4750
vn 0.3359 -0.6718 0.5818
vn 0.3359 0.6718 0.5818
vn -0.0000 -0.0000 0.9500
vn -0.3359 -0.6718 0.5818
vn -0.3359 0.6718 0.5818
vn -0.8227 -0.0000 0.4750
vn -0.6718 -0.6718 -0.0000
vn -0.6718 0.6718 -0.0000
vn -0.8227 -0.0000 -0.4750
vn -0.3359 -0.6718 -0.5818
vn -0.3359 0.6718 -0.5818
vn -0.0000 -0.9500 -0.0000
vt 0.990377 0.500000
vt 0.009622 0.500000
vt 0.750000 0.462287
vt -0.000000 0.525000
vt 0.016667 0.525000
vt 0.983333 0.525000
vt -0.000000 0.525000
vt 0.250000 0.462287
vt 0.990377 1.000000
vt 0.009622 1.000000
vt 0.983333 1.000000
vt 0.983333 0.975000
vt -0.000000 0.975000
vt 1.000000 0.975000
vt 0.016667 0.975000
vt 0.842956 0.500000
vt 0.823711 0.500000
vt 0.933846 0.356144
vt 0.833333 0.525000
vt 0.850000 0.525000
vt 0.833333 0.525000
vt 0.816667 0.525000
vt 0.433846 0.356144
vt 0.842956 1.000000
vt 0.823711 1.000000
vt 0.833333 0.975000
vt 0.816667 0.975000
vt 0.833333 0.975000
vt 0.850000 0.975000
vt 0.676289 0.500000
vt 0.657044 0.500000
vt 0.933846 0.143856
vt 0.666667 0.525000
vt 0.683333 0.525000
vt 0.650000 0.500000
vt 0.650000 0.525000
vt 0.433846 0.143856
vt 0.676289 1.000000
vt 0.657044 1.000000
vt 0.650000 1.000000
vt 0.650000 0.975000
vt 0.666667 0.975000
vt 0.683333 0.975000
vt 0.509622 0.500000
vt 0.490377 0.500000
vt 0.750000 0.037713
vt 0.516667 0.500000
vt 0.516667 0.525000
vt 0.500000 0.525000
vt 0.483333 0.525000
vt 0.250000 0.037713
vt 0.509622 1.000000
vt 0.490377 1.000000
vt 0.500000 0.975000
vt 0.483333 0.975000
vt 0.500000 0.975000
vt 0.516667 0.975000
vt 0.342956 0.500000
vt 0.323711 0.500000
vt 0.566154 0.143856
vt 0.350000 0.500000
vt 0.350000 0.525000
vt 0.333333 0.525000
vt 0.316667 0.525000
vt 0.066154 0.143856
vt 0.342956 1.000000
vt 0.323711 1.000000
vt 0.333333 0.975000
vt 0.316667 0.975000
vt 0.350000 1.000000
vt 0.350000 0.975000
vt 0.176289 0.500000
vt 0.157044 0.500000
vt 0.566154 0.356144
vt 0.166667 0.525000
vt 0.183333 0.525000
vt 0.150000 0.500000
vt 0.150000 0.525000
vt 0.066154 0.356144
vt 0.176289 1.000000
vt 0.157044 1.000000
vt 0.150000 1.000000
vt 0.150000 0.975000
vt 0.166667 0.975000
vt 0.183333 0.975000
s 0
f 33/78/1 35/83/1 6/15/1 2/5/1
f 15/36/2 17/41/2 24/57/2 20/48/2
f 21/50/3 23/55/3 30/71/3 26/62/3
f 27/64/4 29/69/4 36/85/4 32/76/4
f 9/22/5 11/27/5 18/43/5 14/34/5
f 10/23/6 4/8/6 34/79/6 28/65/6 22/51/6 16/37/6
f 3/6/7 5/12/7 12/29/7 8/20/7
f 1/2/8 2/4/8 3/7/8
f 4/9/9 5/11/9 6/14/9
f 7/16/10 8/19/10 9/21/10
f 10/25/11 11/26/11 12/28/11
f 13/31/12 14/33/12 15/35/12
f 16/39/13 17/40/13 18/42/13
f 19/44/14 20/47/14 21/49/14
f 22/53/15 23/54/15 24/56/15
f 25/58/16 26/61/16 27/63/16
f 28/66/17 29/68/17 30/70/17
f 31/73/18 32/75/18 33/77/18
f 34/81/19 35/82/19 36/84/19
f 3/6/20 8/20/20 7/16/20 1/1/20
f 12/29/21 5/12/21 4/9/21 10/24/21
f 2/5/22 6/15/22 5/13/22 3/7/22
f 11/27/23 9/22/23 8/20/23 12/29/23
f 9/22/24 14/34/24 13/30/24 7/17/24
f 18/43/25 11/27/25 10/25/25 16/38/25
f 17/41/26 15/36/26 14/34/26 18/43/26
f 15/36/27 20/48/27 19/44/27 13/31/27
f 24/57/28 17/41/28 16/39/28 22/52/28
f 23/55/29 21/50/29 20/48/29 24/57/29
f 21/50/30 26/62/30 25/58/30 19/45/30
f 30/71/31 23/55/31 22/53/31 28/66/31
f 29/69/32 27/64/32 26/62/32 30/71/32
f 27/64/33 32/76/33 31/72/33 25/59/33
f 36/85/34 29/69/34 28/67/34 34/80/34
f 35/83/35 33/78/35 32/76/35 36/85/35
f 33/78/36 2/5/36 1/2/36 31/73/36
f 6/15/37 35/83/37 34/81/37 4/10/37
f 1/3/38 7/18/38 13/32/38 19/46/38 25/60/38 31/74/38
